# xmcd CD database file
#
# Track frame offsets:
#	182
#	2360
#	5240
#	8785
#	11515
#	15335
#	22100
#	24010
#	28060
#	32660
#	37275
#	42940
#	45200
#	53087
#	54585
#	58447
#	61047
#	67712
#	87805
#	91220
#	93030
#	95297
#	96062
#	99447
#	103055
#
# Disc length: 1459 seconds
#
# Revision: 0
# Processed by: cddbd v1.4PL0 Copyright (c) Steve Scherf et al.
# Submitted via: CDex 1.50
#
DISCID=1b05b119
DTITLE=B. B. King - Blues Master III
DYEAR=1992
DGENRE=Blues
TTITLE0=Every Day I Have The Blues - Intro
TTITLE1=Every Day I Have The Blues - First Solo
TTITLE2=Every Day I Have The Blues - Second Solo
TTITLE3=Examples 1-3
TTITLE4=Example 4
TTITLE5=Example 5
TTITLE6=Example 6
TTITLE7=Examples 7-10
TTITLE8=All Over Again - Intro
TTITLE9=All Over Again - First Solo
TTITLE10=All Over Again - Second Solo
TTITLE11=Examples 11-13
TTITLE12=Example 14
TTITLE13=Examples 15-16
TTITLE14=Example 17
TTITLE15=Examples 18-19
TTITLE16=Example 20
TTITLE17=Darling You Know I Love You
TTITLE18=Examples 21-23
TTITLE19=Example 24
TTITLE20=Example 25
TTITLE21=Example 26
TTITLE22=Example 27
TTITLE23=Sweet Little Angel - Intro
TTITLE24=Sweet Little Angel - Solo
EXTD=YEAR: 1992
EXTT0=
EXTT1=
EXTT2=
EXTT3=
EXTT4=
EXTT5=
EXTT6=
EXTT7=
EXTT8=
EXTT9=
EXTT10=
EXTT11=
EXTT12=
EXTT13=
EXTT14=
EXTT15=
EXTT16=
EXTT17=
EXTT18=
EXTT19=
EXTT20=
EXTT21=
EXTT22=
EXTT23=
EXTT24=
PLAYORDER=
